<svg xmlns="http://www.w3.org/2000/svg" width="94.884" height="95.19" viewBox="0 0 94.884 95.19">
  <g id="Grupo_62" data-name="Grupo 62" transform="translate(-2133.867 -448.5)">
    <g id="Grupo_57" data-name="Grupo 57" transform="translate(2133.867 448.5)">
      <g id="Grupo_56" data-name="Grupo 56" transform="translate(0 0)">
        <path id="Caminho_32" data-name="Caminho 32" d="M2159.975,454.449c-2.876-3.835-6.759-5.947-10.933-5.947s-8.057,2.112-10.933,5.947a23.789,23.789,0,0,0,0,27.117,15.31,15.31,0,0,0,5.611,4.731l-3.211,48.275a8.551,8.551,0,1,0,17.065,0l-3.21-48.274a15.319,15.319,0,0,0,5.612-4.731,23.79,23.79,0,0,0,0-27.117ZM2152.1,538a4.185,4.185,0,0,1-7.231-3.138l3.152-47.4c.339.028.68.048,1.024.048s.684-.02,1.023-.048l3.152,47.4A4.145,4.145,0,0,1,2152.1,538Zm-3.055-54.853a7.869,7.869,0,0,1-2.28-.342c-.061-.022-.123-.043-.186-.06-4.775-1.568-8.342-7.578-8.342-14.737,0-8.347,4.849-15.139,10.808-15.139s10.809,6.791,10.809,15.139S2155,483.146,2149.042,483.146Z" transform="translate(-2133.867 -448.502)" fill="#f14242"/>
      </g>
    </g>
    <g id="Grupo_59" data-name="Grupo 59" transform="translate(2211.194 448.5)">
      <g id="Grupo_58" data-name="Grupo 58">
        <path id="Caminho_33" data-name="Caminho 33" d="M2426,505.375V450.958l-.018.008a2.183,2.183,0,0,0-3.312-2.14,29.812,29.812,0,0,0-14.226,25.513v28.594a4.637,4.637,0,0,0,4.493,4.628v29.565a6.532,6.532,0,1,0,13.064,0v-31.74S2426,505.379,2426,505.375Zm-12.922-2.172a.268.268,0,0,1-.268-.269V474.345a25.446,25.446,0,0,1,8.824-19.361V503.2Zm8.556,33.924a2.166,2.166,0,0,1-4.332,0V507.569h4.332v29.557Z" transform="translate(-2408.442 -448.5)" fill="#f14242"/>
      </g>
    </g>
    <g id="Grupo_61" data-name="Grupo 61" transform="translate(2173.546 448.5)">
      <g id="Grupo_60" data-name="Grupo 60" transform="translate(0 0)">
        <path id="Caminho_34" data-name="Caminho 34" d="M2296.8,448.5a2.183,2.183,0,0,0-2.183,2.183v24.8h-5.563v-24.8a2.183,2.183,0,1,0-4.366,0v24.8h-5.563v-24.8a2.183,2.183,0,1,0-4.366,0v31.6a6.461,6.461,0,0,0,6.454,6.454h.388l-3.063,46.042a8.351,8.351,0,1,0,16.665,0l-3.063-46.043h.389a6.461,6.461,0,0,0,6.454-6.454v-31.6A2.184,2.184,0,0,0,2296.8,448.5Zm-7.019,89.559a3.985,3.985,0,0,1-6.886-2.986l3.082-46.333h1.787l3.083,46.334A3.942,3.942,0,0,1,2289.782,538.061Zm4.836-55.773a2.09,2.09,0,0,1-2.088,2.087h-11.316a2.09,2.09,0,0,1-2.088-2.087v-2.435h15.491Z" transform="translate(-2274.76 -448.502)" fill="#f14242"/>
      </g>
    </g>
  </g>
</svg>
