<svg xmlns="http://www.w3.org/2000/svg" width="40.591" height="71.515" viewBox="0 0 40.591 71.515">
  <path id="Caminho_40" data-name="Caminho 40" d="M-7662.848,54.015H-7674.3a3.473,3.473,0,0,1-3.469-3.469V24.715h-6.682a3.474,3.474,0,0,1-3.47-3.469V10.176a3.473,3.473,0,0,1,3.47-3.469h6.682V1.164c0-5.5,1.726-10.172,4.99-13.521,3.279-3.365,7.861-5.143,13.252-5.143l8.734.014a3.474,3.474,0,0,1,3.463,3.469V-3.74A3.472,3.472,0,0,1-7650.8-.271l-5.881,0c-1.793,0-2.25.36-2.348.47-.16.183-.353.7-.353,2.126V6.707h8.14a3.529,3.529,0,0,1,1.717.436,3.483,3.483,0,0,1,1.784,3.034l0,11.069a3.472,3.472,0,0,1-3.469,3.468h-8.167V50.546A3.473,3.473,0,0,1-7662.848,54.015Zm-10.729-4.193h10V22.838a2.319,2.319,0,0,1,2.316-2.316h9.321l0-9.621h-9.324a2.319,2.319,0,0,1-2.316-2.316V2.328a7.141,7.141,0,0,1,1.4-4.9c1.494-1.692,3.849-1.888,5.49-1.888l5.156,0v-8.831l-8.008-.013c-8.664,0-14.047,5.546-14.047,14.472V8.584a2.319,2.319,0,0,1-2.315,2.316h-7.835v9.621h7.835a2.318,2.318,0,0,1,2.315,2.316Zm22.775-63.116h0Z" transform="translate(7687.92 17.5)"/>
</svg>
