<svg xmlns="http://www.w3.org/2000/svg" width="70.678" height="103" viewBox="0 0 70.678 103">
  <path id="Caminho_31" data-name="Caminho 31" d="M1220.313,486.661h-6.679V473.518a3.018,3.018,0,0,0-6.035,0v13.143h-6.679a25.671,25.671,0,0,0-25.642,25.642V522a3.018,3.018,0,0,0,3.018,3.018h3.446v8.573a7.966,7.966,0,0,1-2.349,5.669,3.018,3.018,0,0,0,2.134,5.151h6.464a15.911,15.911,0,0,0,3.447-.38v5.721a7.966,7.966,0,0,1-2.349,5.669,3.017,3.017,0,0,0,2.134,5.151h6.464c.165,0,.328-.007.492-.013a16.442,16.442,0,0,0,11.476,12.784,3.019,3.019,0,0,0,1.921,0,16.442,16.442,0,0,0,11.476-12.784c.164.005.327.013.492.013h6.464a3.018,3.018,0,0,0,2.134-5.151,7.968,7.968,0,0,1-2.349-5.669v-5.721a15.91,15.91,0,0,0,3.447.38h6.464a3.018,3.018,0,0,0,2.134-5.151,7.968,7.968,0,0,1-2.349-5.669v-8.573h3.447a3.018,3.018,0,0,0,3.018-3.018v-9.7a25.671,25.671,0,0,0-25.642-25.643ZM1200.7,499.372a6.673,6.673,0,0,1,6.676-6.676h6.471a6.673,6.673,0,0,1,6.676,6.676h0v0a28,28,0,0,1-8.258,19.935l-1.654,1.653-1.654-1.654a28,28,0,0,1-8.257-19.934Zm16.59,29.094h0A15.067,15.067,0,0,1,1210.616,541a15.068,15.068,0,0,1-6.679-12.533v-5.673c.248.264.5.527.757.784l3.788,3.789a3.017,3.017,0,0,0,4.267,0l3.787-3.788c.258-.258.51-.521.758-.785v5.671Zm-35.983-9.483V512.3a19.642,19.642,0,0,1,14.915-19.04,12.641,12.641,0,0,0-1.557,6.108v9.7a9.923,9.923,0,0,1-9.911,9.911Zm6.679,19.393h-1.047a14.06,14.06,0,0,0,.832-4.785v-8.863a15.977,15.977,0,0,0,10.126-6.64v10.377a9.923,9.923,0,0,1-9.911,9.911Zm9.7,16.161h-1.047a14.063,14.063,0,0,0,.832-4.785v-8.475a16.068,16.068,0,0,0,2.933-2.821,21.117,21.117,0,0,0,6.907,7.594l.166.111a9.927,9.927,0,0,1-9.792,8.376Zm12.928,12.753a10.419,10.419,0,0,1-6.543-8.057,16.036,16.036,0,0,0,6.543-5.29,16.041,16.041,0,0,0,6.543,5.29,10.418,10.418,0,0,1-6.543,8.057Zm12.929-12.753a9.927,9.927,0,0,1-9.792-8.376l.166-.111a21.116,21.116,0,0,0,6.906-7.594,16.064,16.064,0,0,0,2.934,2.82v8.476a14.063,14.063,0,0,0,.832,4.785Zm9.7-16.161a9.922,9.922,0,0,1-9.911-9.911V518.088a15.975,15.975,0,0,0,10.125,6.64v8.863a14.049,14.049,0,0,0,.832,4.785Zm6.679-19.393h-3.447a9.922,9.922,0,0,1-9.911-9.911v-9.7a12.643,12.643,0,0,0-1.558-6.108,19.642,19.642,0,0,1,14.916,19.04Z" transform="translate(-1175.277 -470.5)" fill="#f14242"/>
</svg>
