<svg id="Grupo_70" data-name="Grupo 70" xmlns="http://www.w3.org/2000/svg" width="71.515" height="71.515" viewBox="0 0 71.515 71.515">
  <path id="Caminho_37" data-name="Caminho 37" d="M-7449.545-17.5h-32.8A19.38,19.38,0,0,0-7501.7,1.858v32.8a19.38,19.38,0,0,0,19.358,19.358h32.8a19.38,19.38,0,0,0,19.357-19.358V1.858A19.38,19.38,0,0,0-7449.545-17.5Zm15.166,52.157a15.183,15.183,0,0,1-15.166,15.166h-32.8a15.183,15.183,0,0,1-15.166-15.166V1.858a15.183,15.183,0,0,1,15.166-15.166h32.8a15.182,15.182,0,0,1,15.165,15.166Z" transform="translate(7501.701 17.5)"/>
  <path id="Caminho_38" data-name="Caminho 38" d="M-7440.458,24.189a19.577,19.577,0,0,0-19.555,19.554A19.577,19.577,0,0,0-7440.458,63.3,19.576,19.576,0,0,0-7420.9,43.743,19.576,19.576,0,0,0-7440.458,24.189Zm0,34.916a15.379,15.379,0,0,1-15.362-15.362,15.38,15.38,0,0,1,15.362-15.362A15.379,15.379,0,0,1-7425.1,43.743,15.379,15.379,0,0,1-7440.458,59.105Z" transform="translate(7476.216 -7.986)"/>
  <path id="Caminho_39" data-name="Caminho 39" d="M-7367.275,6.321a5.786,5.786,0,0,0-5.779,5.778,5.785,5.785,0,0,0,5.779,5.778A5.785,5.785,0,0,0-7361.5,12.1,5.785,5.785,0,0,0-7367.275,6.321Zm0,7.364a1.588,1.588,0,0,1-1.586-1.585,1.588,1.588,0,0,1,1.586-1.586,1.587,1.587,0,0,1,1.585,1.586A1.587,1.587,0,0,1-7367.275,13.685Z" transform="translate(7423.057 2.938)"/>
</svg>
