<svg id="Grupo_55" data-name="Grupo 55" xmlns="http://www.w3.org/2000/svg" width="78.652" height="78.652" viewBox="0 0 78.652 78.652">
  <path id="Caminho_27" data-name="Caminho 27" d="M1517.691,518.292l-4.557-4.556-73.927,73.927,4.556,4.556,73.068-73.068Z" transform="translate(-1439.123 -513.652)" fill="#f14242"/>
  <path id="Caminho_28" data-name="Caminho 28" d="M1452.251,540.03A13.251,13.251,0,1,0,1439,526.779,13.266,13.266,0,0,0,1452.251,540.03Zm-6.807-13.251a6.807,6.807,0,1,1,6.807,6.807A6.814,6.814,0,0,1,1445.444,526.779Z" transform="translate(-1439 -513.528)" fill="#f14242"/>
  <path id="Caminho_29" data-name="Caminho 29" d="M1580.882,642.16a13.251,13.251,0,1,0,13.251,13.251A13.266,13.266,0,0,0,1580.882,642.16Zm6.807,13.251a6.807,6.807,0,1,1-6.807-6.807A6.814,6.814,0,0,1,1587.689,655.411Z" transform="translate(-1515.482 -590.01)" fill="#f14242"/>
</svg>
