<svg xmlns="http://www.w3.org/2000/svg" width="69.489" height="79.424" viewBox="0 0 69.489 79.424">
  <path id="Caminho_30" data-name="Caminho 30" d="M1843.927,545.288l3.5-4.67a3.262,3.262,0,1,0-5.219-3.914l-3.992,5.322h-9.364l-3.439-9.171,3.622-3.622,6.287,2.515a3.262,3.262,0,1,0,2.422-6.057l-3.691-1.477,3.13-3.129a3.262,3.262,0,0,0-4.613-4.613l-3.13,3.129-1.476-3.691a3.262,3.262,0,0,0-6.057,2.423l2.515,6.287-3.622,3.622-10.828-4.06v-7.059a11.545,11.545,0,1,0-23.09,0v31.923a19.83,19.83,0,1,0,31.287,14.274l2.63-.986,3.622,3.622-2.515,6.287a3.262,3.262,0,1,0,6.057,2.423l1.477-3.691,3.13,3.129a3.262,3.262,0,0,0,4.613-4.613l-3.13-3.129,3.691-1.477a3.262,3.262,0,1,0-2.422-6.057l-6.287,2.515-3.622-3.622,3.439-9.171h9.364l3.992,5.322a3.262,3.262,0,1,0,5.219-3.914Zm-45.5,33.188a13.309,13.309,0,0,1-6.651-24.835,3.262,3.262,0,0,0,1.629-2.823V517.124a5.022,5.022,0,1,1,10.043,0v24.9h-1.708a3.262,3.262,0,0,0,0,6.524h1.708v2.268a3.262,3.262,0,0,0,1.629,2.824,13.308,13.308,0,0,1-6.65,24.835Zm11.545-29.43v-17.9l9.115,3.418,4.02,10.72-4.02,10.721-2.609.978a19.92,19.92,0,0,0-6.506-7.941Z" transform="translate(-1778.6 -505.576)" fill="#f14242"/>
</svg>
