<svg xmlns="http://www.w3.org/2000/svg" width="78.147" height="64.519" viewBox="0 0 78.147 64.519">
  <path id="Caminho_41" data-name="Caminho 41" d="M-7184.408,56.019c-13.043,0-23.352-2.279-28.283-6.251l-.1-.078-.087-.087a4.009,4.009,0,0,1-1.052-4.218l.045-.125a4.086,4.086,0,0,1,3.728-2.564,33.664,33.664,0,0,0,8.9-1.227c-4.225-1.965-7.16-5.368-8.906-10.293a3.649,3.649,0,0,1,1.272-4.254,3.738,3.738,0,0,1,1.111-.567,24.658,24.658,0,0,1-5.055-9.056l-.029-.1-.021-.1a3.8,3.8,0,0,1,1.76-4.076,3.774,3.774,0,0,1,1.8-.508,19.023,19.023,0,0,1-1.438-4.392A18.377,18.377,0,0,1-7208.8-4.128l.485-.969a2.709,2.709,0,0,1,1.985-1.459,2.711,2.711,0,0,1,2.344.756l.882.884c6.977,7.313,13.225,10.783,24.027,13.157a19.145,19.145,0,0,1,5.167-11.035,18.133,18.133,0,0,1,12.942-5.7h.032c3.578,0,8.017,2.043,10.7,3.483,2.3-.754,5.076-1.92,7.955-3.154a3.635,3.635,0,0,1,4.066.716,3.573,3.573,0,0,1,.774,3.924q-.313.874-.71,1.714a3.643,3.643,0,0,1,1.059.73,3.935,3.935,0,0,1,.979,3.673l-.035.125a14.993,14.993,0,0,1-6.024,8.267C-7142.638,35.9-7161.405,56.019-7184.408,56.019Zm-23.889-8.8c4.647,2.629,13.5,4.22,23.889,4.22a35.784,35.784,0,0,0,26.528-12.069,43.241,43.241,0,0,0,11.137-29.341V9.9a2.7,2.7,0,0,1,1.44-2.389,9.734,9.734,0,0,0,4.211-4.659,2.691,2.691,0,0,1-2.584-1.058,2.691,2.691,0,0,1-.021-3.2,14.72,14.72,0,0,0,1.021-1.616c-2.485,1.044-4.846,1.98-6.895,2.6a2.933,2.933,0,0,1-2.255-.243c-3.649-2.032-7.046-3.247-9.095-3.254-7.56.116-13.706,6.59-13.706,14.44a2.7,2.7,0,0,1-.987,2.088,2.693,2.693,0,0,1-2.239.564c-12.456-2.454-19.837-6.134-27.513-13.847a13.524,13.524,0,0,0-.892,7.913,16.715,16.715,0,0,0,3.968,7.695,2.691,2.691,0,0,1,.261,3.213,2.684,2.684,0,0,1-2.988,1.181,12.387,12.387,0,0,1-2.52-.969,22.833,22.833,0,0,0,7.827,9.079,2.7,2.7,0,0,1,1.021,3.122,2.7,2.7,0,0,1-2.749,1.8,12.158,12.158,0,0,1-3.587-.775c1.943,3.958,5.05,6.136,9.834,6.968a2.7,2.7,0,0,1,2.208,2.239,2.7,2.7,0,0,1-1.4,2.813A32.469,32.469,0,0,1-7208.3,47.216Z" transform="translate(7214.142 8.5)"/>
</svg>
