<svg id="Grupo_69" data-name="Grupo 69" xmlns="http://www.w3.org/2000/svg" width="73.546" height="55.704" viewBox="0 0 73.546 55.704">
  <path id="Caminho_35" data-name="Caminho 35" d="M-6842.079,51.469l-16.248-8.89a2.959,2.959,0,0,0-2.954.051,2.959,2.959,0,0,0-1.463,2.568V62.824a2.959,2.959,0,0,0,1.453,2.561,2.973,2.973,0,0,0,1.529.426,2.976,2.976,0,0,0,1.415-.36l16.249-8.737a2.984,2.984,0,0,0,1.571-2.618A2.985,2.985,0,0,0-6842.079,51.469Zm-16.355,9.138V47.432l12.144,6.645Z" transform="translate(6890.172 -26.907)"/>
  <path id="Caminho_36" data-name="Caminho 36" d="M-6860.31,15.987l0-.033c-.062-.592-.682-5.857-3.241-8.536a11.964,11.964,0,0,0-7.927-3.716c-.133-.015-.256-.029-.365-.044l-.128-.013c-9.724-.707-24.406-.8-24.554-.8h-.025c-.147,0-14.83.1-24.641.8l-.13.013c-.1.014-.219.027-.345.042a11.667,11.667,0,0,0-7.88,3.831c-2.438,2.65-3.143,7.8-3.215,8.381l-.009.075c-.021.246-.541,6.111-.541,12v5.5c0,5.887.52,11.751.541,12l0,.037c.063.583.682,5.752,3.229,8.431a12.214,12.214,0,0,0,8.192,3.664c.3.034.557.063.731.094l.17.023c5.614.534,23.216.8,23.961.808h.045c.147,0,14.83-.1,24.554-.8l.128-.013c.123-.016.261-.031.412-.047a11.4,11.4,0,0,0,7.813-3.737c2.438-2.65,3.144-7.8,3.215-8.381l.009-.075c.022-.247.542-6.111.542-12v-5.5C-6859.768,22.1-6860.287,16.234-6860.31,15.987Zm-3.769,17.5c0,5.449-.476,11.06-.521,11.575-.183,1.419-.926,4.679-2.113,5.97a7.086,7.086,0,0,1-5.087,2.36c-.166.017-.32.034-.459.052-9.4.68-23.533.784-24.184.789-.729-.011-18.074-.276-23.517-.782-.278-.045-.581-.08-.9-.116a8.057,8.057,0,0,1-5.512-2.3l-.04-.042c-1.167-1.216-1.889-4.264-2.072-5.911-.035-.389-.523-6.067-.523-11.592v-5.5c0-5.443.475-11.048.521-11.574.218-1.671.976-4.734,2.114-5.972a7.434,7.434,0,0,1,5.194-2.458c.126-.014.242-.028.351-.042,9.541-.684,23.771-.785,24.282-.789s14.736.105,24.192.789l.38.045a7.718,7.718,0,0,1,5.278,2.391l.018.018c1.166,1.216,1.889,4.318,2.072,6,.032.368.522,6.058.522,11.594Z" transform="translate(6933.313 -2.84)"/>
</svg>
